<?xml version="1.0" encoding="UTF-8" standalone="no"?> <svg height="618pt" viewBox="-19 -29 618.66679 618" width="618pt" xmlns="http://www.w3.org/2000/svg"><path d="m291.257812 177.621094h-242.851562c-19.984375.023437-36.183594 16.222656-36.207031 36.207031v308.964844c.023437 19.988281 16.222656 36.1875 36.207031 36.210937h242.851562c19.988282-.023437 36.1875-16.222656 36.210938-36.210937v-308.964844c-.023438-19.984375-16.222656-36.183594-36.210938-36.207031zm13.734376 345.171875c-.007813 7.578125-6.15625 13.726562-13.734376 13.734375h-242.851562c-7.578125-.007813-13.722656-6.15625-13.734375-13.734375v-308.964844c.011719-7.578125 6.15625-13.722656 13.734375-13.734375h242.851562c7.578126.011719 13.726563 6.15625 13.734376 13.734375zm0 0"/><path d="m169.835938 361.796875c-32.289063 0-58.464844 26.175781-58.464844 58.464844 0 32.289062 26.171875 58.460937 58.460937 58.460937 32.285157 0 58.464844-26.171875 58.464844-58.460937-.039063-32.273438-26.191406-58.425781-58.460937-58.464844zm0 94.449219c-19.875 0-35.992188-16.109375-35.992188-35.984375s16.113281-35.992188 35.988281-35.992188 35.988281 16.117188 35.988281 35.992188c-.023437 19.859375-16.125 35.960937-35.984374 35.980469zm0 0"/><path d="m169.835938 319.292969c-55.761719 0-100.96875 45.203125-100.96875 100.96875 0 55.757812 45.207031 100.960937 100.96875 100.960937 55.757812 0 100.960937-45.203125 100.960937-100.960937-.0625-55.734375-45.226563-100.90625-100.960937-100.96875zm0 179.453125c-43.351563 0-78.492188-35.140625-78.492188-78.484375 0-43.351563 35.140625-78.492188 78.492188-78.492188 43.34375 0 78.488281 35.140625 78.488281 78.492188-.050781 43.324219-35.164063 78.4375-78.488281 78.484375zm0 0"/><path d="m80.105469 258.652344h117.121093c6.210938 0 11.238282-5.027344 11.238282-11.238282 0-6.203124-5.027344-11.234374-11.238282-11.234374h-117.121093c-6.203125 0-11.238281 5.03125-11.238281 11.234374 0 6.210938 5.035156 11.238282 11.238281 11.238282zm0 0"/><path d="m251.589844 222.015625c-14.03125 0-25.40625 11.371094-25.40625 25.398437 0 14.035157 11.375 25.40625 25.40625 25.40625s25.40625-11.371093 25.40625-25.40625c-.019532-14.019531-11.382813-25.386718-25.40625-25.398437zm0 28.332031c-1.617188 0-2.929688-1.3125-2.929688-2.933594 0-1.617187 1.3125-2.929687 2.929688-2.929687 1.621094 0 2.933594 1.316406 2.933594 2.929687-.007813 1.621094-1.3125 2.929688-2.933594 2.933594zm0 0"/><path d="m568.761719 358.414062h-56.167969c14.261719-2.414062 25.621094-13.253906 28.683594-27.390624l20.15625-90.695313c.738281-3.324219-.074219-6.808594-2.207032-9.464844-2.128906-2.660156-5.355468-4.207031-8.765624-4.207031h-11.859376c8.167969-13.15625 5.707032-30.289062-5.839843-40.613281 9.863281-8.84375 13.253906-22.851563 8.515625-35.222657-4.730469-12.371093-16.605469-20.539062-29.851563-20.539062h-80.519531c-13.246094 0-25.121094 8.167969-29.851562 20.539062-4.738282 12.367188-1.351563 26.378907 8.507812 35.222657-11.542969 10.324219-14.007812 27.449219-5.835938 40.609375h-11.863281c-3.410156 0-6.632812 1.546875-8.761719 4.210937-2.132812 2.65625-2.941406 6.140625-2.207031 9.464844l20.152344 90.691406c3.070313 14.132813 14.429687 24.980469 28.683594 27.390625h-56.160157c-6.210937 0-11.238281 5.035156-11.238281 11.238282v36.597656c0 6.207031 5.027344 11.238281 11.238281 11.238281h12.050782l-23.113282 128.28125c-1.097656 6.113281 2.960938 11.953125 9.066407 13.050781 6.105469 1.101563 11.953125-2.953125 13.050781-9.0625l23.835938-132.273437h125.410156l23.828125 132.285156c1.105469 6.105469 6.945312 10.164063 13.058593 9.066406 6.105469-1.101562 10.164063-6.945312 9.0625-13.054687l-23.113281-128.292969h12.050781c6.207032 0 11.238282-5.027344 11.238282-11.238281v-36.59375c0-6.207032-5.03125-11.238282-11.234375-11.238282zm-147.359375-148.582031c.007812-5.25 4.257812-9.496093 9.503906-9.507812h80.519531c5.246094 0 9.5 4.257812 9.5 9.507812 0 5.246094-4.253906 9.5-9.5 9.5h-80.519531c-5.242188-.011719-9.496094-4.253906-9.503906-9.496093zm9.503906-57.082031h80.519531c5.246094 0 9.5 4.253906 9.5 9.5 0 5.25-4.253906 9.503906-9.5 9.503906h-80.519531c-5.246094 0-9.503906-4.253906-9.503906-9.503906 0-5.246094 4.257812-9.5 9.503906-9.5zm21 96.371094h38.519531v26.582031c-.082031 10.582031-8.679687 19.109375-19.261719 19.109375-10.578124 0-19.175781-8.527344-19.257812-19.109375zm-28.914062 77.019531-17.121094-77.007813h23.554687v26.582032c.125 22.957031 18.773438 41.507812 41.734375 41.507812 22.964844 0 41.609375-18.550781 41.738282-41.507812v-26.582032h23.550781l-17.113281 77.011719c-1.3125 6.039063-6.667969 10.335938-12.847657 10.308594h-70.648437c-6.179688.027344-11.535156-4.269531-12.847656-10.308594zm134.53125 68.863281h-172.714844v-14.113281h172.714844zm0 0"/><path d="m328.429688 109.417969h-37.558594v-57.078125c0-6.203125-5.027344-11.238282-11.234375-11.238282h-52.460938c-6.210937 0-11.238281 5.035157-11.238281 11.238282v57.078125h-55.25c10.726562-3.667969 18.707031-12.753907 20.964844-23.867188 2.253906-11.117187-1.550782-22.59375-9.996094-30.15625 9.859375-8.84375 13.25-22.855469 8.515625-35.230469-4.730469-12.371093-16.609375-20.539062-29.855469-20.539062h-80.519531c-13.25 0-25.125 8.167969-29.859375 20.539062-4.734375 12.375-1.347656 26.386719 8.519531 35.230469-8.453125 7.5625-12.257812 19.039063-10 30.15625 2.257813 11.113281 10.238281 20.199219 20.96875 23.867188h-48.1875c-6.203125 0-11.238281 5.035156-11.238281 11.238281 0 6.210938 5.035156 11.238281 11.238281 11.238281h317.191407c6.203124 0 11.238281-5.027343 11.238281-11.238281 0-6.203125-5.035157-11.238281-11.238281-11.238281zm-268.136719-30.238281c.007812-5.242188 4.257812-9.496094 9.503906-9.5h80.519531c5.242188 0 9.5 4.25 9.5 9.5s-4.257812 9.5-9.5 9.5h-80.519531c-5.246094-.003907-9.496094-4.25-9.503906-9.5zm9.503906-57.082032h80.519531c5.242188 0 9.5 4.253906 9.5 9.503906 0 5.246094-4.257812 9.5-9.5 9.5h-80.519531c-5.25 0-9.503906-4.253906-9.503906-9.5 0-5.25 4.253906-9.503906 9.503906-9.503906zm168.613281 87.320313v-45.839844h29.988282v45.839844zm0 0"/></svg>