<?xml version="1.0" encoding="utf-8"?>
<!-- Generator: Adobe Illustrator 16.0.0, SVG Export Plug-In . SVG Version: 6.00 Build 0)  -->
<!DOCTYPE svg PUBLIC "-//W3C//DTD SVG 1.0//EN" "http://www.w3.org/TR/2001/REC-SVG-20010904/DTD/svg10.dtd">
<svg version="1.0" id="Layer_1" xmlns="http://www.w3.org/2000/svg" xmlns:xlink="http://www.w3.org/1999/xlink" x="0px" y="0px"
	 width="100px" height="100px" viewBox="0 0 100 100" enable-background="new 0 0 100 100" xml:space="preserve">
<path d="M90,43.333H71.666l-1.875-15H75v10h5v-15H69.166l-0.006-0.052c-0.457-3.638-3.828-6.614-7.494-6.614v-6.667H55v6.667
	c-3.666,0-7.038,2.977-7.494,6.614l-0.449,3.578L40.202,20l-3.535,3.537l9.199,12.879L45,43.333H35l1.667-10H23.334l1.667,10H10V50
	h13.333l-6.667,39.999h6.757l4.443-26.666h44.263l4.443,26.666h6.758L76.666,50H90V43.333z M54.121,24.107
	c0.039-0.303,0.572-0.773,0.879-0.773h6.666c0.307,0,0.84,0.472,0.879,0.774l2.402,19.225H51.719L54.121,24.107z M71.021,56.667
	H28.98L30.091,50h39.817L71.021,56.667z"/>
</svg>
