<?xml version="1.0" encoding="UTF-8" standalone="no"?> <svg width="24" height="24" viewBox="0 0 24 24" fill="none" xmlns="http://www.w3.org/2000/svg">
<path fill-rule="evenodd" clip-rule="evenodd" d="M12 5C8.073 5 4.50042 6.50774 1.82593 8.97772C1.4202 9.35243 0.787534 9.32728 0.41283 8.92155C0.0381259 8.51582 0.0632762 7.88315 0.469004 7.50845C3.4984 4.7107 7.55055 3 12 3C16.4494 3 20.5016 4.7107 23.531 7.50845C23.9367 7.88315 23.9619 8.51582 23.5872 8.92155C23.2125 9.32728 22.5798 9.35243 22.1741 8.97772C19.4996 6.50774 15.927 5 12 5ZM12 10C9.38182 10 7.0006 11.0049 5.21735 12.6518C4.81162 13.0265 4.17895 13.0013 3.80425 12.5956C3.42954 12.1899 3.45469 11.5572 3.86042 11.1825C5.99859 9.20782 8.85937 8 12 8C15.1406 8 18.0014 9.20782 20.1396 11.1825C20.5453 11.5572 20.5705 12.1899 20.1958 12.5956C19.8211 13.0013 19.1884 13.0265 18.7827 12.6518C16.9994 11.0049 14.6182 10 12 10ZM12 15C10.6906 15 9.50079 15.502 8.60876 16.3258C8.20303 16.7005 7.57037 16.6753 7.19566 16.2696C6.82096 15.8639 6.84611 15.2312 7.25184 14.8565C8.49877 13.7049 10.1682 13 12 13C13.8318 13 15.5012 13.7049 16.7482 14.8565C17.1539 15.2312 17.179 15.8639 16.8043 16.2696C16.4296 16.6753 15.797 16.7005 15.3912 16.3258C14.4992 15.502 13.3094 15 12 15ZM10 20C10 18.8954 10.8954 18 12 18C13.1046 18 14 18.8954 14 20C14 21.1046 13.1046 22 12 22C10.8954 22 10 21.1046 10 20Z" fill="#293644"/>
</svg>
